<svg xmlns="http://www.w3.org/2000/svg" xmlns:xlink="http://www.w3.org/1999/xlink" width="529" zoomAndPan="magnify" viewBox="0 0 396.75 396.749984" height="529" preserveAspectRatio="xMidYMid meet" version="1.0"><defs><clipPath id="30106de74a"><path d="M 0 79.015625 L 396.40625 79.015625 L 396.40625 337.542969 L 0 337.542969 Z M 0 79.015625 " clip-rule="nonzero"/></clipPath></defs><g clip-path="url(#30106de74a)"><path fill="#c4391d" d="M -0.078125 337.355469 L 113.472656 140.695312 L 128.296875 144.660156 L 146.742188 176.609375 C 148.945312 180.402344 153.8125 181.703125 157.605469 179.5 C 158.21875 179.136719 158.753906 178.714844 159.230469 178.257812 L 188.789062 148.699219 L 297.699219 337.335938 L -0.078125 337.335938 Z M 232.308594 192.257812 L 242.363281 174.828125 L 254.527344 178.085938 L 269.601562 204.210938 C 271.804688 208.003906 276.667969 209.285156 280.460938 207.101562 C 281.074219 206.738281 281.609375 206.316406 282.089844 205.839844 L 282.089844 205.859375 L 306.453125 181.511719 L 396.421875 337.355469 L 316.070312 337.355469 Z M 250.597656 160.578125 L 272.492188 122.652344 L 298.21875 167.222656 L 278.183594 187.257812 L 266.824219 167.585938 C 265.828125 165.671875 264.066406 164.160156 261.824219 163.566406 L 250.617188 160.558594 Z M 121.6875 126.445312 L 148.8125 79.457031 L 180.550781 134.429688 L 155.285156 159.695312 L 140.554688 134.183594 C 139.558594 132.265625 137.796875 130.753906 135.558594 130.160156 Z M 121.6875 126.445312 " fill-opacity="1" fill-rule="evenodd"/></g></svg>