<svg xmlns="http://www.w3.org/2000/svg" xmlns:xlink="http://www.w3.org/1999/xlink" width="529" zoomAndPan="magnify" viewBox="0 0 396.75 396.749984" height="529" preserveAspectRatio="xMidYMid meet" version="1.0"><defs><filter x="0%" y="0%" width="100%" height="100%" id="d05be5b42a"><feColorMatrix values="0 0 0 0 1 0 0 0 0 1 0 0 0 0 1 0 0 0 1 0" color-interpolation-filters="sRGB"/></filter><clipPath id="5f5c9a577a"><path d="M 41 4.476562 L 366 4.476562 L 366 396.386719 L 41 396.386719 Z M 41 4.476562 " clip-rule="nonzero"/></clipPath><clipPath id="f1410ad36b"><path d="M 39.652344 4.476562 L 204 4.476562 L 204 396.386719 L 39.652344 396.386719 Z M 39.652344 4.476562 " clip-rule="nonzero"/></clipPath><mask id="d24b208a32"><g filter="url(#d05be5b42a)"><rect x="-39.675" width="476.1" fill="#000000" y="-39.674998" height="476.099981" fill-opacity="0.15"/></g></mask><clipPath id="6e78be9451"><path d="M 2 0.476562 L 164.152344 0.476562 L 164.152344 392.386719 L 2 392.386719 Z M 2 0.476562 " clip-rule="nonzero"/></clipPath><clipPath id="17ec64bbdb"><rect x="0" width="165" y="0" height="393"/></clipPath></defs><g clip-path="url(#5f5c9a577a)"><path fill="#0c6980" d="M 203.074219 4.476562 C 113.621094 4.476562 41.105469 76.996094 41.105469 166.441406 C 41.105469 289.445312 203.074219 396.503906 203.074219 396.503906 C 203.074219 396.503906 365.039062 289.445312 365.039062 166.441406 C 365.039062 76.996094 292.527344 4.476562 203.074219 4.476562 Z M 203.074219 4.476562 " fill-opacity="1" fill-rule="nonzero"/></g><g clip-path="url(#f1410ad36b)"><g mask="url(#d24b208a32)"><g transform="matrix(1, 0, 0, 1, 39, 4)"><g clip-path="url(#17ec64bbdb)"><g clip-path="url(#6e78be9451)"><path fill="#ffffff" d="M 164.074219 0.476562 C 74.621094 0.476562 2.105469 72.996094 2.105469 162.441406 C 2.105469 285.445312 164.074219 392.503906 164.074219 392.503906 Z M 164.074219 0.476562 " fill-opacity="1" fill-rule="nonzero"/></g></g></g></g></g><path fill="#00a8a8" d="M 328.960938 166.441406 C 328.960938 168.503906 328.910156 170.5625 328.808594 172.617188 C 328.707031 174.675781 328.554688 176.730469 328.355469 178.78125 C 328.152344 180.832031 327.898438 182.875 327.597656 184.914062 C 327.296875 186.949219 326.941406 188.980469 326.542969 191 C 326.140625 193.023438 325.6875 195.03125 325.1875 197.03125 C 324.6875 199.027344 324.136719 201.011719 323.539062 202.984375 C 322.941406 204.957031 322.296875 206.910156 321.601562 208.851562 C 320.90625 210.792969 320.164062 212.714844 319.378906 214.617188 C 318.589844 216.519531 317.753906 218.402344 316.875 220.265625 C 315.992188 222.128906 315.066406 223.96875 314.09375 225.785156 C 313.125 227.601562 312.109375 229.394531 311.050781 231.160156 C 309.992188 232.925781 308.890625 234.667969 307.746094 236.378906 C 306.601562 238.09375 305.414062 239.777344 304.1875 241.433594 C 302.960938 243.085938 301.691406 244.710938 300.386719 246.304688 C 299.078125 247.894531 297.734375 249.457031 296.347656 250.980469 C 294.964844 252.507812 293.546875 254 292.089844 255.457031 C 290.632812 256.914062 289.140625 258.335938 287.613281 259.71875 C 286.085938 261.101562 284.527344 262.445312 282.933594 263.753906 C 281.34375 265.058594 279.71875 266.328125 278.0625 267.554688 C 276.410156 268.78125 274.726562 269.96875 273.011719 271.113281 C 271.300781 272.257812 269.558594 273.359375 267.792969 274.417969 C 266.023438 275.476562 264.234375 276.492188 262.414062 277.464844 C 260.597656 278.433594 258.757812 279.359375 256.898438 280.242188 C 255.035156 281.121094 253.152344 281.957031 251.25 282.746094 C 249.34375 283.535156 247.421875 284.277344 245.484375 284.96875 C 243.542969 285.664062 241.589844 286.308594 239.617188 286.90625 C 237.644531 287.503906 235.660156 288.054688 233.660156 288.554688 C 231.664062 289.054688 229.652344 289.507812 227.632812 289.910156 C 225.613281 290.3125 223.582031 290.664062 221.542969 290.964844 C 219.507812 291.269531 217.460938 291.519531 215.414062 291.722656 C 213.363281 291.925781 211.308594 292.074219 209.25 292.175781 C 207.191406 292.277344 205.132812 292.328125 203.074219 292.328125 C 201.011719 292.328125 198.953125 292.277344 196.898438 292.175781 C 194.839844 292.074219 192.785156 291.925781 190.734375 291.722656 C 188.683594 291.519531 186.640625 291.269531 184.601562 290.964844 C 182.5625 290.664062 180.535156 290.3125 178.515625 289.910156 C 176.492188 289.507812 174.484375 289.054688 172.484375 288.554688 C 170.488281 288.054688 168.503906 287.503906 166.53125 286.90625 C 164.558594 286.308594 162.601562 285.664062 160.664062 284.96875 C 158.722656 284.277344 156.800781 283.535156 154.898438 282.746094 C 152.996094 281.957031 151.113281 281.121094 149.25 280.242188 C 147.386719 279.359375 145.546875 278.433594 143.730469 277.464844 C 141.914062 276.492188 140.121094 275.476562 138.355469 274.417969 C 136.585938 273.359375 134.847656 272.257812 133.132812 271.113281 C 131.421875 269.96875 129.738281 268.78125 128.082031 267.554688 C 126.429688 266.328125 124.804688 265.058594 123.210938 263.753906 C 121.621094 262.445312 120.058594 261.101562 118.535156 259.71875 C 117.007812 258.335938 115.515625 256.914062 114.058594 255.457031 C 112.601562 254 111.179688 252.507812 109.796875 250.980469 C 108.414062 249.457031 107.070312 247.894531 105.761719 246.304688 C 104.453125 244.710938 103.1875 243.085938 101.960938 241.433594 C 100.734375 239.777344 99.546875 238.09375 98.402344 236.378906 C 97.257812 234.667969 96.15625 232.925781 95.097656 231.160156 C 94.039062 229.394531 93.023438 227.601562 92.050781 225.785156 C 91.082031 223.96875 90.152344 222.128906 89.273438 220.265625 C 88.390625 218.402344 87.558594 216.519531 86.769531 214.617188 C 85.980469 212.714844 85.238281 210.792969 84.546875 208.851562 C 83.851562 206.910156 83.207031 204.957031 82.609375 202.984375 C 82.007812 201.011719 81.460938 199.027344 80.960938 197.03125 C 80.460938 195.03125 80.007812 193.023438 79.605469 191 C 79.203125 188.980469 78.851562 186.953125 78.550781 184.914062 C 78.246094 182.875 77.996094 180.832031 77.792969 178.78125 C 77.589844 176.730469 77.441406 174.675781 77.339844 172.617188 C 77.238281 170.5625 77.1875 168.503906 77.1875 166.441406 C 77.1875 164.382812 77.238281 162.324219 77.339844 160.265625 C 77.441406 158.207031 77.589844 156.152344 77.792969 154.101562 C 77.996094 152.050781 78.246094 150.007812 78.550781 147.96875 C 78.851562 145.933594 79.203125 143.902344 79.605469 141.882812 C 80.007812 139.863281 80.460938 137.851562 80.960938 135.855469 C 81.460938 133.855469 82.007812 131.871094 82.609375 129.898438 C 83.207031 127.925781 83.851562 125.972656 84.546875 124.03125 C 85.238281 122.09375 85.980469 120.171875 86.769531 118.265625 C 87.558594 116.363281 88.390625 114.480469 89.273438 112.617188 C 90.152344 110.757812 91.082031 108.917969 92.050781 107.097656 C 93.023438 105.28125 94.039062 103.492188 95.097656 101.722656 C 96.15625 99.957031 97.257812 98.214844 98.402344 96.503906 C 99.546875 94.789062 100.734375 93.105469 101.960938 91.453125 C 103.1875 89.796875 104.453125 88.171875 105.761719 86.582031 C 107.070312 84.988281 108.414062 83.429688 109.796875 81.902344 C 111.179688 80.375 112.601562 78.882812 114.058594 77.425781 C 115.515625 75.96875 117.007812 74.550781 118.535156 73.167969 C 120.058594 71.78125 121.621094 70.4375 123.210938 69.128906 C 124.804688 67.824219 126.429688 66.554688 128.082031 65.328125 C 129.738281 64.101562 131.421875 62.914062 133.132812 61.769531 C 134.847656 60.625 136.585938 59.523438 138.355469 58.464844 C 140.121094 57.40625 141.914062 56.390625 143.730469 55.417969 C 145.546875 54.449219 147.386719 53.523438 149.25 52.640625 C 151.113281 51.761719 152.996094 50.925781 154.898438 50.136719 C 156.800781 49.347656 158.722656 48.609375 160.664062 47.914062 C 162.601562 47.21875 164.558594 46.574219 166.53125 45.976562 C 168.503906 45.378906 170.488281 44.828125 172.484375 44.328125 C 174.484375 43.828125 176.492188 43.375 178.515625 42.972656 C 180.535156 42.574219 182.5625 42.21875 184.601562 41.917969 C 186.640625 41.617188 188.683594 41.363281 190.734375 41.160156 C 192.785156 40.960938 194.839844 40.808594 196.898438 40.707031 C 198.953125 40.605469 201.011719 40.554688 203.074219 40.554688 C 205.132812 40.554688 207.191406 40.605469 209.25 40.707031 C 211.308594 40.808594 213.363281 40.960938 215.414062 41.160156 C 217.460938 41.363281 219.507812 41.617188 221.542969 41.917969 C 223.582031 42.21875 225.613281 42.574219 227.632812 42.972656 C 229.652344 43.375 231.664062 43.828125 233.660156 44.328125 C 235.660156 44.828125 237.644531 45.378906 239.617188 45.976562 C 241.589844 46.574219 243.542969 47.21875 245.484375 47.914062 C 247.421875 48.609375 249.34375 49.347656 251.25 50.136719 C 253.152344 50.925781 255.035156 51.761719 256.898438 52.640625 C 258.757812 53.523438 260.597656 54.449219 262.414062 55.417969 C 264.234375 56.390625 266.023438 57.40625 267.792969 58.464844 C 269.558594 59.523438 271.300781 60.625 273.011719 61.769531 C 274.726562 62.914062 276.410156 64.101562 278.0625 65.328125 C 279.71875 66.554688 281.34375 67.824219 282.933594 69.128906 C 284.527344 70.4375 286.085938 71.78125 287.613281 73.167969 C 289.140625 74.550781 290.632812 75.96875 292.089844 77.425781 C 293.546875 78.882812 294.964844 80.375 296.347656 81.902344 C 297.734375 83.429688 299.078125 84.988281 300.386719 86.582031 C 301.691406 88.171875 302.960938 89.796875 304.1875 91.453125 C 305.414062 93.105469 306.601562 94.789062 307.746094 96.503906 C 308.890625 98.214844 309.992188 99.957031 311.050781 101.722656 C 312.109375 103.492188 313.125 105.28125 314.09375 107.097656 C 315.066406 108.917969 315.992188 110.757812 316.875 112.617188 C 317.753906 114.480469 318.589844 116.363281 319.378906 118.265625 C 320.164062 120.171875 320.90625 122.09375 321.601562 124.03125 C 322.296875 125.972656 322.941406 127.925781 323.539062 129.898438 C 324.136719 131.871094 324.6875 133.855469 325.1875 135.855469 C 325.6875 137.851562 326.140625 139.863281 326.542969 141.882812 C 326.941406 143.902344 327.296875 145.933594 327.597656 147.96875 C 327.898438 150.007812 328.152344 152.050781 328.355469 154.101562 C 328.554688 156.152344 328.707031 158.207031 328.808594 160.265625 C 328.910156 162.324219 328.960938 164.382812 328.960938 166.441406 Z M 328.960938 166.441406 " fill-opacity="1" fill-rule="nonzero"/><path fill="#ffffff" d="M 215.476562 94.675781 L 159.121094 94.570312 L 159.121094 244.847656 L 189.175781 244.847656 L 189.175781 207.160156 L 215.476562 207.160156 C 246.535156 207.160156 271.722656 181.980469 271.722656 150.925781 C 271.722656 119.847656 246.535156 94.675781 215.476562 94.675781 Z M 233.992188 169.441406 C 229.050781 174.394531 222.464844 177.113281 215.476562 177.113281 L 189.175781 177.113281 L 189.175781 124.679688 L 215.421875 124.730469 L 215.476562 124.730469 C 222.464844 124.730469 229.050781 127.449219 233.992188 132.402344 C 238.945312 137.351562 241.675781 143.925781 241.675781 150.929688 C 241.675781 157.914062 238.945312 164.488281 233.992188 169.441406 Z M 233.992188 169.441406 " fill-opacity="1" fill-rule="nonzero"/></svg>